<svg id="Layer_1" data-name="Layer 1" xmlns="http://www.w3.org/2000/svg" viewBox="0 0 512 512"><title>rent-sign-flat</title><path d="M0,256C0,114.61,114.61,0,256,0S512,114.63,512,256,397.38,512,256,512,0,397.39,0,256Z" fill="#b454cc"/><path d="M192.63,300.66a11.79,11.79,0,0,0,.57-6.29,10.5,10.5,0,0,0-4.14-7.37q-3.35-2.4-9.1-1.49l-17,2.66,3.4,21.75,15.34-2.41a19,19,0,0,0,7.43-2.4A9.34,9.34,0,0,0,192.63,300.66Z" fill="#fff"/><path d="M358.3,211.06,346.17,213,240.89,143.35a15.87,15.87,0,1,0-28,5.15l-69.11,96.11-13.13,2.06c-3.59.55-6,4.43-5.31,8.63l19.69,125.89c.67,4.2,4.11,7.16,7.69,6.6l227.62-35.6c3.59-.56,6-4.43,5.31-8.64L366,217.67C365.33,213.46,361.88,210.51,358.3,211.06ZM220.66,154a15.78,15.78,0,0,0,15-2.75l96.56,63.85L157,242.55ZM203.51,341.73l-9.33-12.55a85.1,85.1,0,0,0-8-9.83,12.58,12.58,0,0,0-4.71-3.1,13.16,13.16,0,0,0-5.73-.1l-8.25,1.29,4.58,29.18-7.14,1.12L154.67,282l23.9-3.75c5-.77,8.77-.73,11.33.1a14.28,14.28,0,0,1,6.81,5.21,21,21,0,0,1,3.84,9.57q1.16,7.44-2,12.65c-2.1,3.5-5.56,6-10.36,7.64a18.68,18.68,0,0,1,5.14,2.95,46.42,46.42,0,0,1,6.93,7.51l12.2,16.42Zm56.17-8.8-40.21,6.29L209.2,273.49l39-6.09,1.22,7.75-31.84,5,3.14,20.09,29.81-4.67,1.21,7.75L221.9,308l3.5,22.38,33.09-5.18Zm52.11-8.15-7.31,1.14-36.38-47.29,8.08,51.72-6.87,1.08L259.05,265.7l7.32-1.14,36.42,47.28-8.09-51.71,6.82-1.07Zm41.82-65.94-17.84,2.8,9.06,58-7.12,1.12-9.07-58-17.76,2.76-1.21-7.75,42.72-6.68Z" fill="#fff"/></svg>